<svg xmlns="http://www.w3.org/2000/svg" width="1000" height="620" viewBox="0 0 1000 620" role="img" aria-label="Reliability decay chart">
<rect width="100%" height="100%" fill="#0f172a"/>
<text x="500" y="36" text-anchor="middle" font-family="Inter, system-ui, sans-serif" font-size="24" font-weight="700" fill="#f8fafc">Long-running sessions compound ambiguous decisions</text>
<line x1="90" y1="540.0" x2="790" y2="540.0" stroke="#334155" stroke-width="1"/>
<text x="78" y="545.0" text-anchor="end" font-family="Inter, system-ui, sans-serif" font-size="14" fill="#cbd5e1">0%</text>
<line x1="90" y1="446.0" x2="790" y2="446.0" stroke="#334155" stroke-width="1"/>
<text x="78" y="451.0" text-anchor="end" font-family="Inter, system-ui, sans-serif" font-size="14" fill="#cbd5e1">20%</text>
<line x1="90" y1="352.0" x2="790" y2="352.0" stroke="#334155" stroke-width="1"/>
<text x="78" y="357.0" text-anchor="end" font-family="Inter, system-ui, sans-serif" font-size="14" fill="#cbd5e1">40%</text>
<line x1="90" y1="258.0" x2="790" y2="258.0" stroke="#334155" stroke-width="1"/>
<text x="78" y="263.0" text-anchor="end" font-family="Inter, system-ui, sans-serif" font-size="14" fill="#cbd5e1">60%</text>
<line x1="90" y1="164.0" x2="790" y2="164.0" stroke="#334155" stroke-width="1"/>
<text x="78" y="169.0" text-anchor="end" font-family="Inter, system-ui, sans-serif" font-size="14" fill="#cbd5e1">80%</text>
<line x1="90" y1="70.0" x2="790" y2="70.0" stroke="#334155" stroke-width="1"/>
<text x="78" y="75.0" text-anchor="end" font-family="Inter, system-ui, sans-serif" font-size="14" fill="#cbd5e1">100%</text>
<line x1="90.0" y1="70" x2="90.0" y2="540" stroke="#1e293b" stroke-width="1"/>
<text x="90.0" y="568" text-anchor="middle" font-family="Inter, system-ui, sans-serif" font-size="14" fill="#cbd5e1">1</text>
<line x1="224.3" y1="70" x2="224.3" y2="540" stroke="#1e293b" stroke-width="1"/>
<text x="224.3" y="568" text-anchor="middle" font-family="Inter, system-ui, sans-serif" font-size="14" fill="#cbd5e1">20</text>
<line x1="365.8" y1="70" x2="365.8" y2="540" stroke="#1e293b" stroke-width="1"/>
<text x="365.8" y="568" text-anchor="middle" font-family="Inter, system-ui, sans-serif" font-size="14" fill="#cbd5e1">40</text>
<line x1="507.2" y1="70" x2="507.2" y2="540" stroke="#1e293b" stroke-width="1"/>
<text x="507.2" y="568" text-anchor="middle" font-family="Inter, system-ui, sans-serif" font-size="14" fill="#cbd5e1">60</text>
<line x1="648.6" y1="70" x2="648.6" y2="540" stroke="#1e293b" stroke-width="1"/>
<text x="648.6" y="568" text-anchor="middle" font-family="Inter, system-ui, sans-serif" font-size="14" fill="#cbd5e1">80</text>
<line x1="790.0" y1="70" x2="790.0" y2="540" stroke="#1e293b" stroke-width="1"/>
<text x="790.0" y="568" text-anchor="middle" font-family="Inter, system-ui, sans-serif" font-size="14" fill="#cbd5e1">100</text>
<line x1="90" y1="540" x2="790" y2="540" stroke="#94a3b8" stroke-width="1.5"/>
<line x1="90" y1="70" x2="90" y2="540" stroke="#94a3b8" stroke-width="1.5"/>
<polyline points="90.00,74.70 97.07,79.35 104.14,83.96 111.21,88.52 118.28,93.03 125.35,97.50 132.42,101.93 139.49,106.31 146.57,110.65 153.64,114.94 160.71,119.19 167.78,123.40 174.85,127.57 181.92,131.69 188.99,135.77 196.06,139.81 203.13,143.82 210.20,147.78 217.27,151.70 224.34,155.58 231.41,159.43 238.48,163.23 245.56,167.00 252.63,170.73 259.70,174.42 266.77,178.08 273.84,181.70 280.91,185.28 287.98,188.83 295.05,192.34 302.12,195.82 309.19,199.26 316.26,202.67 323.33,206.04 330.40,209.38 337.47,212.69 344.55,215.96 351.62,219.20 358.69,222.41 365.76,225.58 372.83,228.73 379.90,231.84 386.97,234.92 394.04,237.97 401.11,240.99 408.18,243.98 415.25,246.94 422.32,249.87 429.39,252.77 436.46,255.65 443.54,258.49 450.61,261.31 457.68,264.09 464.75,266.85 471.82,269.58 478.89,272.29 485.96,274.96 493.03,277.61 500.10,280.24 507.17,282.84 514.24,285.41 521.31,287.95 528.38,290.47 535.45,292.97 542.53,295.44 549.60,297.89 556.67,300.31 563.74,302.70 570.81,305.08 577.88,307.43 584.95,309.75 592.02,312.05 599.09,314.33 606.16,316.59 613.23,318.82 620.30,321.04 627.37,323.23 634.44,325.39 641.52,327.54 648.59,329.66 655.66,331.77 662.73,333.85 669.80,335.91 676.87,337.95 683.94,339.97 691.01,341.97 698.08,343.95 705.15,345.91 712.22,347.85 719.29,349.78 726.36,351.68 733.43,353.56 740.51,355.43 747.58,357.27 754.65,359.10 761.72,360.91 768.79,362.70 775.86,364.47 782.93,366.23 790.00,367.96" fill="none" stroke="#22c55e" stroke-width="4" stroke-linejoin="round" stroke-linecap="round"/>
<polyline points="90.00,79.40 97.07,88.61 104.14,97.64 111.21,106.49 118.28,115.16 125.35,123.65 132.42,131.98 139.49,140.14 146.57,148.14 153.64,155.98 160.71,163.66 167.78,171.18 174.85,178.56 181.92,185.79 188.99,192.87 196.06,199.82 203.13,206.62 210.20,213.29 217.27,219.82 224.34,226.22 231.41,232.50 238.48,238.65 245.56,244.68 252.63,250.58 259.70,256.37 266.77,262.04 273.84,267.60 280.91,273.05 287.98,278.39 295.05,283.62 302.12,288.75 309.19,293.77 316.26,298.70 323.33,303.53 330.40,308.25 337.47,312.89 344.55,317.43 351.62,321.88 358.69,326.25 365.76,330.52 372.83,334.71 379.90,338.82 386.97,342.84 394.04,346.78 401.11,350.65 408.18,354.43 415.25,358.15 422.32,361.78 429.39,365.35 436.46,368.84 443.54,372.26 450.61,375.62 457.68,378.91 464.75,382.13 471.82,385.29 478.89,388.38 485.96,391.41 493.03,394.38 500.10,397.30 507.17,400.15 514.24,402.95 521.31,405.69 528.38,408.37 535.45,411.01 542.53,413.59 549.60,416.11 556.67,418.59 563.74,421.02 570.81,423.40 577.88,425.73 584.95,428.02 592.02,430.26 599.09,432.45 606.16,434.60 613.23,436.71 620.30,438.78 627.37,440.80 634.44,442.79 641.52,444.73 648.59,446.64 655.66,448.50 662.73,450.33 669.80,452.13 676.87,453.88 683.94,455.61 691.01,457.29 698.08,458.95 705.15,460.57 712.22,462.16 719.29,463.71 726.36,465.24 733.43,466.73 740.51,468.20 747.58,469.64 754.65,471.04 761.72,472.42 768.79,473.77 775.86,475.10 782.93,476.40 790.00,477.67" fill="none" stroke="#3b82f6" stroke-width="4" stroke-linejoin="round" stroke-linecap="round"/>
<polyline points="90.00,93.50 97.07,115.83 104.14,137.03 111.21,157.18 118.28,176.32 125.35,194.51 132.42,211.78 139.49,228.19 146.57,243.78 153.64,258.59 160.71,272.66 167.78,286.03 174.85,298.73 181.92,310.79 188.99,322.25 196.06,333.14 203.13,343.48 210.20,353.31 217.27,362.64 224.34,371.51 231.41,379.94 238.48,387.94 245.56,395.54 252.63,402.77 259.70,409.63 266.77,416.15 273.84,422.34 280.91,428.22 287.98,433.81 295.05,439.12 302.12,444.16 309.19,448.96 316.26,453.51 323.33,457.83 330.40,461.94 337.47,465.84 344.55,469.55 351.62,473.07 358.69,476.42 365.76,479.60 372.83,482.62 379.90,485.49 386.97,488.21 394.04,490.80 401.11,493.26 408.18,495.60 415.25,497.82 422.32,499.93 429.39,501.93 436.46,503.84 443.54,505.64 450.61,507.36 457.68,508.99 464.75,510.54 471.82,512.02 478.89,513.42 485.96,514.75 493.03,516.01 500.10,517.21 507.17,518.35 514.24,519.43 521.31,520.46 528.38,521.44 535.45,522.36 542.53,523.25 549.60,524.08 556.67,524.88 563.74,525.64 570.81,526.35 577.88,527.04 584.95,527.68 592.02,528.30 599.09,528.88 606.16,529.44 613.23,529.97 620.30,530.47 627.37,530.95 634.44,531.40 641.52,531.83 648.59,532.24 655.66,532.63 662.73,532.99 669.80,533.34 676.87,533.68 683.94,533.99 691.01,534.29 698.08,534.58 705.15,534.85 712.22,535.11 719.29,535.35 726.36,535.58 733.43,535.81 740.51,536.02 747.58,536.21 754.65,536.40 761.72,536.58 768.79,536.75 775.86,536.92 782.93,537.07 790.00,537.22" fill="none" stroke="#f59e0b" stroke-width="4" stroke-linejoin="round" stroke-linecap="round"/>
<polyline points="90.00,117.00 97.07,159.30 104.14,197.37 111.21,231.63 118.28,262.47 125.35,290.22 132.42,315.20 139.49,337.68 146.57,357.91 153.64,376.12 160.71,392.51 167.78,407.26 174.85,420.53 181.92,432.48 188.99,443.23 196.06,452.91 203.13,461.62 210.20,469.46 217.27,476.51 224.34,482.86 231.41,488.57 238.48,493.72 245.56,498.34 252.63,502.51 259.70,506.26 266.77,509.63 273.84,512.67 280.91,515.40 287.98,517.86 295.05,520.08 302.12,522.07 309.19,523.86 316.26,525.48 323.33,526.93 330.40,528.24 337.47,529.41 344.55,530.47 351.62,531.42 358.69,532.28 365.76,533.05 372.83,533.75 379.90,534.37 386.97,534.94 394.04,535.44 401.11,535.90 408.18,536.31 415.25,536.68 422.32,537.01 429.39,537.31 436.46,537.58 443.54,537.82 450.61,538.04 457.68,538.23 464.75,538.41 471.82,538.57 478.89,538.71 485.96,538.84 493.03,538.96 500.10,539.06 507.17,539.16 514.24,539.24 521.31,539.32 528.38,539.38 535.45,539.45 542.53,539.50 549.60,539.55 556.67,539.60 563.74,539.64 570.81,539.67 577.88,539.71 584.95,539.73 592.02,539.76 599.09,539.79 606.16,539.81 613.23,539.83 620.30,539.84 627.37,539.86 634.44,539.87 641.52,539.89 648.59,539.90 655.66,539.91 662.73,539.92 669.80,539.93 676.87,539.93 683.94,539.94 691.01,539.95 698.08,539.95 705.15,539.96 712.22,539.96 719.29,539.96 726.36,539.97 733.43,539.97 740.51,539.97 747.58,539.98 754.65,539.98 761.72,539.98 768.79,539.98 775.86,539.98 782.93,539.99 790.00,539.99" fill="none" stroke="#ef4444" stroke-width="4" stroke-linejoin="round" stroke-linecap="round"/>
<text x="440.0" y="596" text-anchor="middle" font-family="Inter, system-ui, sans-serif" font-size="16" fill="#e2e8f0">Number of ambiguous branch decisions</text>
<text transform="translate(26 305.0) rotate(-90)" text-anchor="middle" font-family="Inter, system-ui, sans-serif" font-size="16" fill="#e2e8f0">Probability all branches match user intent</text>
<rect x="807" y="68" width="165" height="130" rx="10" fill="#111827" stroke="#334155"/>
<line x1="825" y1="92" x2="857" y2="92" stroke="#22c55e" stroke-width="4" stroke-linecap="round"/>
<text x="869" y="97" font-family="Inter, system-ui, sans-serif" font-size="14" fill="#e2e8f0">99% per branch</text>
<line x1="825" y1="122" x2="857" y2="122" stroke="#3b82f6" stroke-width="4" stroke-linecap="round"/>
<text x="869" y="127" font-family="Inter, system-ui, sans-serif" font-size="14" fill="#e2e8f0">98% per branch</text>
<line x1="825" y1="152" x2="857" y2="152" stroke="#f59e0b" stroke-width="4" stroke-linecap="round"/>
<text x="869" y="157" font-family="Inter, system-ui, sans-serif" font-size="14" fill="#e2e8f0">95% per branch</text>
<line x1="825" y1="182" x2="857" y2="182" stroke="#ef4444" stroke-width="4" stroke-linecap="round"/>
<text x="869" y="187" font-family="Inter, system-ui, sans-serif" font-size="14" fill="#e2e8f0">90% per branch</text>
<text x="90" y="615" font-family="Inter, system-ui, sans-serif" font-size="12" fill="#94a3b8">Illustrative calculation: p^n. Not a measured benchmark.</text>
</svg>